<svg width="225" height="40" viewBox="0 0 225 40" fill="none" xmlns="http://www.w3.org/2000/svg">
<g clip-path="url(#clip0)">
<path d="M56.6986 12.3739H53.3263C53.0479 12.3739 52.8004 12.6209 52.8004 12.8988C52.8004 13.331 52.2744 13.578 51.9341 13.2693C50.8203 12.2813 49.3043 11.8182 47.3861 11.8182C44.6635 11.8182 42.4669 12.7444 40.7962 14.5969C39.0946 16.4494 38.2593 18.7341 38.2593 21.4511C38.2593 24.1681 39.0946 26.4219 40.7344 28.2436C42.4669 30.1578 44.6635 31.1149 47.3242 31.1149C48.3762 31.1149 49.4281 30.8988 50.4181 30.4357C50.975 30.1887 51.47 29.8799 51.9031 29.5094C52.2435 29.2007 52.7694 29.4477 52.7694 29.8799C52.7694 30.2813 53.0788 30.59 53.481 30.59H56.482C57.3174 30.59 57.998 29.9108 57.998 29.0772V13.7015C58.0289 12.9914 57.4411 12.3739 56.6986 12.3739ZM51.5009 25.0943C50.5418 26.0823 49.3971 26.5763 48.0668 26.5763C46.7364 26.5763 45.5917 26.0514 44.6635 25.0326C43.7354 24.0137 43.2713 22.8096 43.2713 21.482C43.2713 20.1235 43.7044 18.9194 44.6017 17.9314C45.4989 16.9434 46.6127 16.4494 47.9739 16.4494C49.4281 16.4494 50.6347 16.9434 51.5319 17.9314C52.46 18.9194 52.9241 20.1235 52.9241 21.5746C52.9241 22.9331 52.46 24.1063 51.5009 25.0943ZM62.9482 9.22469H62.9791C64.4332 9.22469 65.6089 8.05145 65.6089 6.60033C65.6089 5.14922 64.4332 3.97598 62.9791 3.97598H62.9482C61.4941 3.97598 60.3184 5.14922 60.3184 6.60033C60.3184 8.05145 61.4941 9.22469 62.9482 9.22469ZM64.2166 12.3739H61.9891C61.1537 12.3739 60.4731 13.0532 60.4731 13.8559V29.0772C60.4731 29.9108 61.1537 30.5592 61.9891 30.5592H64.2166C65.052 30.5592 65.7326 29.8799 65.7326 29.0772V13.8868C65.7017 13.0532 65.021 12.3739 64.2166 12.3739ZM78.5721 12.2504C78.0461 12.096 77.4274 12.0034 76.6539 12.0034C75.9732 12.0034 75.2926 12.2504 74.612 12.7444C74.3644 12.9297 74.1479 13.084 73.9623 13.3002C73.6219 13.6089 73.065 13.3928 73.065 12.9297C73.065 12.6518 72.8175 12.4048 72.5391 12.4048H69.4452C68.6718 12.4048 68.0839 13.0223 68.0839 13.7633V29.108C68.0839 29.9417 68.7646 30.59 69.5999 30.59H71.8894C72.7247 30.59 73.4054 29.9108 73.4054 29.108V21.976C73.4054 20.5866 73.6219 19.4442 74.0241 18.5489C74.612 17.3139 75.5092 16.6964 76.7158 16.6964C77.2108 16.6964 77.7058 16.7581 78.2627 16.8816C78.603 16.9434 78.9124 16.7273 78.9124 16.3876V12.7444C78.9124 12.5283 78.7887 12.3122 78.5721 12.2504ZM90.5453 11.8182C88.8127 11.8182 87.2967 12.3122 85.9973 13.3002C85.657 13.5472 85.162 13.331 85.162 12.8988V5.05659C85.162 4.28472 84.5123 3.63635 83.7388 3.63635H81.2637C80.4903 3.63635 79.8406 4.25385 79.8406 5.05659V29.2007C79.8406 29.9725 80.4903 30.6209 81.2637 30.6209H84.4194C84.6979 30.6209 84.9454 30.3739 84.9454 30.096V29.9108C84.9454 29.4477 85.5023 29.2315 85.8426 29.5403C86.9873 30.59 88.4724 31.1149 90.3287 31.1149C93.0513 31.1149 95.3098 30.1578 97.0423 28.2744C98.713 26.4528 99.5483 24.1681 99.5483 21.4511C99.5483 18.7032 98.7439 16.4185 97.1042 14.566C95.4954 12.7444 93.2988 11.8182 90.5453 11.8182ZM93.1441 25.0635C92.2159 26.0514 91.0403 26.5763 89.648 26.5763C88.3177 26.5763 87.173 26.0514 86.3067 25.0326C85.4095 24.0137 84.9763 22.8096 84.9763 21.482C84.9763 20.0926 85.4404 18.8885 86.3376 17.9314C87.2349 16.9434 88.3796 16.4803 89.7718 16.4803C91.164 16.4803 92.3088 16.9743 93.206 17.9314C94.1032 18.9194 94.5673 20.0926 94.5673 21.482C94.5673 22.8713 94.1032 24.0755 93.1441 25.0635ZM117.245 14.5043C115.358 12.7135 113.007 11.8182 110.16 11.8182C107.345 11.8182 104.994 12.7135 103.106 14.5352C101.219 16.3568 100.26 18.6415 100.26 21.4202C100.26 24.199 101.219 26.5146 103.106 28.3362C104.994 30.1578 107.345 31.084 110.16 31.084C113.007 31.084 115.358 30.1887 117.245 28.3671C119.132 26.5454 120.061 24.2298 120.061 21.4202C120.061 18.6106 119.132 16.295 117.245 14.5043ZM113.625 25.0326C112.728 25.9897 111.583 26.4528 110.16 26.4528C108.768 26.4528 107.623 25.9897 106.726 25.0326C105.829 24.0755 105.396 22.9022 105.396 21.482C105.396 20.0617 105.829 18.8576 106.726 17.9005C107.623 16.9434 108.768 16.4494 110.16 16.4494C111.583 16.4494 112.759 16.9434 113.625 17.8696C114.523 18.8267 114.956 20.0309 114.956 21.482C114.987 22.9022 114.523 24.1063 113.625 25.0326ZM136.118 28.7684L130.796 21.1732C130.672 20.988 130.672 20.741 130.796 20.5866L135.375 14.1955C135.932 13.4237 135.375 12.3739 134.416 12.3739H131.446C131.044 12.3739 130.672 12.59 130.456 12.9297L128.043 16.789C127.826 17.1286 127.362 17.1286 127.145 16.789L124.701 12.9297C124.485 12.59 124.113 12.3739 123.711 12.3739H120.71C119.751 12.3739 119.225 13.4237 119.751 14.1955L124.33 20.5866C124.454 20.7719 124.454 20.988 124.33 21.1732L119.071 28.7684C118.545 29.5403 119.101 30.59 120.03 30.59H123.093C123.495 30.59 123.866 30.4048 124.083 30.0652L127.145 25.3413C127.362 25.0326 127.826 25.0326 128.012 25.3413L131.044 30.0652C131.26 30.4048 131.632 30.59 132.034 30.59H135.128C136.087 30.59 136.644 29.5403 136.118 28.7684Z" fill="#5C78F4"/>
<path fill-rule="evenodd" clip-rule="evenodd" d="M1.90106 13.3897C2.76857 13.3897 3.58505 12.855 3.84021 12.0147C4.29948 10.6143 3.25336 9.31567 1.90106 9.31567C1.03355 9.31567 0.217073 9.85039 -0.0380767 10.6906C-0.471832 12.0911 0.548769 13.3897 1.90106 13.3897ZM3.94227 16.0632C3.94227 16.8271 4.58014 17.4637 5.34559 17.4637H6.62134C7.38679 17.4637 8.02467 16.8271 8.02467 16.0632V14.7901C8.02467 14.0262 7.38679 13.3897 6.62134 13.3897H5.34559C4.58014 13.3897 3.94227 14.0262 3.94227 14.7901V16.0632ZM3.94227 27.6741C3.94227 26.5538 3.02372 25.6371 1.90106 25.6371C0.778404 25.6371 -0.140137 26.5538 -0.140137 27.6741C-0.140137 28.7945 0.778404 29.7111 1.90106 29.7111C3.02372 29.7366 3.94227 28.8199 3.94227 27.6741ZM6.64686 21.5631H5.37111C4.60566 21.5631 3.96778 22.1997 3.96778 22.9636V24.2367C3.96778 25.0006 4.60566 25.6371 5.37111 25.6371H6.64686C7.41231 25.6371 8.05018 25.0006 8.05018 24.2367V22.9636C8.05018 22.1742 7.41231 21.5631 6.64686 21.5631ZM6.64686 29.7366H5.37111C4.60566 29.7366 3.96778 30.3732 3.96778 31.137V32.4102C3.96778 33.174 4.60566 33.8106 5.37111 33.8106H6.64686C7.41231 33.8106 8.05018 33.174 8.05018 32.4102V31.137C8.05018 30.3477 7.41231 29.7366 6.64686 29.7366ZM8.96872 25.6371C8.45842 25.6371 8.02467 26.0445 8.02467 26.5792V28.7945C8.02467 29.3037 8.43291 29.7366 8.96872 29.7366H12.1326V25.6626H8.96872V25.6371ZM31.9067 9.31567H21.0118C20.6291 9.31567 20.3229 9.62122 20.3229 10.0032V13.3897H16.2405V10.0032C16.2405 9.62122 15.9343 9.31567 15.5516 9.31567H8.96872C8.45842 9.31567 8.02467 9.72307 8.02467 10.2578V12.473C8.02467 12.9823 8.43291 13.4151 8.96872 13.4151H12.1326V17.4891H8.96872C8.45842 17.4891 8.02467 17.8965 8.02467 18.4312V20.6465C8.02467 21.1557 8.43291 21.5886 8.96872 21.5886H12.1326V25.6626H16.215V17.4637H24.4053V25.6371H16.2405V29.7111H12.1581V33.0976C12.1581 33.4796 12.4643 33.7851 12.847 33.7851H31.9067C32.2894 33.7851 32.5956 33.4796 32.5956 33.0976V10.0032C32.5956 9.62122 32.2894 9.31567 31.9067 9.31567Z" fill="black"/>
<path fill-rule="evenodd" clip-rule="evenodd" d="M1.90106 13.3897C2.76857 13.3897 3.58505 12.855 3.84021 12.0147C4.29948 10.6143 3.25336 9.31567 1.90106 9.31567C1.03355 9.31567 0.217073 9.85039 -0.0380767 10.6906C-0.471832 12.0911 0.548769 13.3897 1.90106 13.3897ZM3.94227 16.0632C3.94227 16.8271 4.58014 17.4637 5.34559 17.4637H6.62134C7.38679 17.4637 8.02467 16.8271 8.02467 16.0632V14.7901C8.02467 14.0262 7.38679 13.3897 6.62134 13.3897H5.34559C4.58014 13.3897 3.94227 14.0262 3.94227 14.7901V16.0632ZM3.94227 27.6741C3.94227 26.5538 3.02372 25.6371 1.90106 25.6371C0.778404 25.6371 -0.140137 26.5538 -0.140137 27.6741C-0.140137 28.7945 0.778404 29.7111 1.90106 29.7111C3.02372 29.7366 3.94227 28.8199 3.94227 27.6741ZM6.64686 21.5631H5.37111C4.60566 21.5631 3.96778 22.1997 3.96778 22.9636V24.2367C3.96778 25.0006 4.60566 25.6371 5.37111 25.6371H6.64686C7.41231 25.6371 8.05018 25.0006 8.05018 24.2367V22.9636C8.05018 22.1742 7.41231 21.5631 6.64686 21.5631ZM6.64686 29.7366H5.37111C4.60566 29.7366 3.96778 30.3732 3.96778 31.137V32.4102C3.96778 33.174 4.60566 33.8106 5.37111 33.8106H6.64686C7.41231 33.8106 8.05018 33.174 8.05018 32.4102V31.137C8.05018 30.3477 7.41231 29.7366 6.64686 29.7366ZM8.96872 25.6371C8.45842 25.6371 8.02467 26.0445 8.02467 26.5792V28.7945C8.02467 29.3037 8.43291 29.7366 8.96872 29.7366H12.1326V25.6626H8.96872V25.6371ZM31.9067 9.31567H21.0118C20.6291 9.31567 20.3229 9.62122 20.3229 10.0032V13.3897H16.2405V10.0032C16.2405 9.62122 15.9343 9.31567 15.5516 9.31567H8.96872C8.45842 9.31567 8.02467 9.72307 8.02467 10.2578V12.473C8.02467 12.9823 8.43291 13.4151 8.96872 13.4151H12.1326V17.4891H8.96872C8.45842 17.4891 8.02467 17.8965 8.02467 18.4312V20.6465C8.02467 21.1557 8.43291 21.5886 8.96872 21.5886H12.1326V25.6626H16.215V17.4637H24.4053V25.6371H16.2405V29.7111H12.1581V33.0976C12.1581 33.4796 12.4643 33.7851 12.847 33.7851H31.9067C32.2894 33.7851 32.5956 33.4796 32.5956 33.0976V10.0032C32.5956 9.62122 32.2894 9.31567 31.9067 9.31567Z" fill="url(#paint0_linear)"/>
</g>
<path d="M155.769 14.0909C155.769 11.3295 158.008 9.09094 160.769 9.09094H216.356C219.118 9.09094 221.356 11.3295 221.356 14.0909V15.9091C221.356 18.6705 219.118 20.9091 216.356 20.9091H155.769V14.0909Z" fill="#5C78F4"/>
<path d="M155.769 20.9092H214.069V26.8183C214.069 29.5797 211.83 31.8183 209.069 31.8183H160.769C158.008 31.8183 155.769 29.5797 155.769 26.8183V20.9092Z" fill="#5C78F4"/>
<path d="M162.929 16.6546C162.838 16.6546 162.765 16.6304 162.71 16.5819C162.662 16.5273 162.622 16.4758 162.592 16.4273L161.736 14.9273V17.9364C161.736 18.0031 161.711 18.0607 161.663 18.1091C161.614 18.1576 161.556 18.1819 161.49 18.1819H160.296C160.229 18.1819 160.172 18.1576 160.123 18.1091C160.075 18.0607 160.05 18.0031 160.05 17.9364V12.0637C160.05 11.997 160.075 11.9394 160.123 11.891C160.172 11.8425 160.229 11.8182 160.296 11.8182H161.353C161.474 11.8182 161.565 11.8516 161.626 11.9182C161.687 11.9849 161.726 12.0334 161.745 12.0637L163.22 14.5819L164.696 12.0637C164.714 12.0334 164.754 11.9849 164.814 11.9182C164.875 11.8516 164.966 11.8182 165.088 11.8182H166.144C166.211 11.8182 166.269 11.8425 166.317 11.891C166.366 11.9394 166.39 11.997 166.39 12.0637V17.9364C166.39 18.0031 166.366 18.0607 166.317 18.1091C166.269 18.1576 166.211 18.1819 166.144 18.1819H164.951C164.884 18.1819 164.827 18.1576 164.778 18.1091C164.729 18.0607 164.705 18.0031 164.705 17.9364V14.9273L163.849 16.4273C163.819 16.4758 163.776 16.5273 163.721 16.5819C163.673 16.6304 163.603 16.6546 163.512 16.6546H162.929Z" fill="white"/>
<path d="M173.14 16.7273C173.207 16.7273 173.264 16.7516 173.313 16.8001C173.361 16.8485 173.386 16.9061 173.386 16.9728V17.9364C173.386 18.0031 173.361 18.0607 173.313 18.1091C173.264 18.1576 173.207 18.1819 173.14 18.1819H168.822C168.755 18.1819 168.697 18.1576 168.649 18.1091C168.6 18.0607 168.576 18.0031 168.576 17.9364V12.0637C168.576 11.997 168.6 11.9394 168.649 11.891C168.697 11.8425 168.755 11.8182 168.822 11.8182H173.067C173.134 11.8182 173.191 11.8425 173.24 11.891C173.289 11.9394 173.313 11.997 173.313 12.0637V13.0273C173.313 13.094 173.289 13.1516 173.24 13.2001C173.191 13.2485 173.134 13.2728 173.067 13.2728H170.261V14.2546H172.867C172.933 14.2546 172.991 14.2788 173.04 14.3273C173.088 14.3758 173.112 14.4334 173.112 14.5001V15.4637C173.112 15.5304 173.088 15.5879 173.04 15.6364C172.991 15.6849 172.933 15.7091 172.867 15.7091H170.261V16.7273H173.14Z" fill="white"/>
<path d="M180.487 11.8182C180.554 11.8182 180.612 11.8425 180.66 11.891C180.709 11.9394 180.733 11.997 180.733 12.0637V17.9364C180.733 18.0031 180.709 18.0607 180.66 18.1091C180.612 18.1576 180.554 18.1819 180.487 18.1819H179.294C179.227 18.1819 179.169 18.1576 179.121 18.1091C179.072 18.0607 179.048 18.0031 179.048 17.9364V15.7091H177.026V17.9364C177.026 18.0031 177.001 18.0607 176.953 18.1091C176.904 18.1576 176.846 18.1819 176.78 18.1819H175.586C175.52 18.1819 175.462 18.1607 175.413 18.1182C175.365 18.0698 175.34 18.0091 175.34 17.9364V12.0637C175.34 11.997 175.365 11.9394 175.413 11.891C175.462 11.8425 175.52 11.8182 175.586 11.8182H176.78C176.846 11.8182 176.904 11.8425 176.953 11.891C177.001 11.9394 177.026 11.997 177.026 12.0637V14.2546H179.048V12.0637C179.048 11.997 179.072 11.9394 179.121 11.891C179.169 11.8425 179.227 11.8182 179.294 11.8182H180.487Z" fill="white"/>
<path d="M187.487 16.7273C187.554 16.7273 187.611 16.7516 187.66 16.8001C187.709 16.8485 187.733 16.9061 187.733 16.9728V17.9364C187.733 18.0031 187.709 18.0607 187.66 18.1091C187.611 18.1576 187.554 18.1819 187.487 18.1819H183.169C183.102 18.1819 183.045 18.1576 182.996 18.1091C182.947 18.0607 182.923 18.0031 182.923 17.9364V12.0637C182.923 11.997 182.947 11.9394 182.996 11.891C183.045 11.8425 183.102 11.8182 183.169 11.8182H187.414C187.481 11.8182 187.539 11.8425 187.587 11.891C187.636 11.9394 187.66 11.997 187.66 12.0637V13.0273C187.66 13.094 187.636 13.1516 187.587 13.2001C187.539 13.2485 187.481 13.2728 187.414 13.2728H184.608V14.2546H187.214C187.28 14.2546 187.338 14.2788 187.387 14.3273C187.435 14.3758 187.46 14.4334 187.46 14.5001V15.4637C187.46 15.5304 187.435 15.5879 187.387 15.6364C187.338 15.6849 187.28 15.7091 187.214 15.7091H184.608V16.7273H187.487Z" fill="white"/>
<path d="M189.515 19.1819C189.448 19.1819 189.39 19.1576 189.341 19.1091C189.293 19.0607 189.269 19.0031 189.269 18.9364V16.9728C189.269 16.9061 189.293 16.8485 189.341 16.8001C189.39 16.7516 189.448 16.7273 189.515 16.7273H189.569C189.794 16.7273 189.949 16.6516 190.034 16.5001C190.125 16.3425 190.17 16.1031 190.17 15.7819V12.0637C190.17 11.997 190.195 11.9394 190.243 11.891C190.292 11.8425 190.35 11.8182 190.416 11.8182H195.044C195.111 11.8182 195.168 11.8425 195.217 11.891C195.266 11.9394 195.29 11.997 195.29 12.0637V16.7273H195.581C195.648 16.7273 195.706 16.7516 195.754 16.8001C195.803 16.8485 195.827 16.9061 195.827 16.9728V18.9364C195.827 19.0031 195.803 19.0607 195.754 19.1091C195.706 19.1576 195.648 19.1819 195.581 19.1819H194.388C194.321 19.1819 194.263 19.1576 194.215 19.1091C194.166 19.0607 194.142 19.0031 194.142 18.9364V18.1819H190.954V18.9364C190.954 19.0031 190.929 19.0607 190.881 19.1091C190.832 19.1576 190.775 19.1819 190.708 19.1819H189.515ZM193.605 16.7273V13.2728H191.856V15.8819C191.856 15.9425 191.853 16.0122 191.846 16.091C191.846 16.1698 191.84 16.2516 191.828 16.3364C191.816 16.4152 191.798 16.491 191.774 16.5637C191.755 16.6304 191.728 16.6849 191.692 16.7273H193.605Z" fill="white"/>
<path d="M204.665 11.8182C204.719 11.8182 204.765 11.8394 204.801 11.8819C204.844 11.9182 204.865 11.9637 204.865 12.0182C204.865 12.0485 204.856 12.0819 204.838 12.1182L202.825 14.9455L204.929 17.8819C204.941 17.9061 204.947 17.9273 204.947 17.9455C204.953 17.9576 204.956 17.9698 204.956 17.9819C204.956 18.0364 204.935 18.0849 204.892 18.1273C204.856 18.1637 204.81 18.1819 204.756 18.1819H203.371C203.25 18.1819 203.165 18.1607 203.116 18.1182C203.074 18.0758 203.034 18.0273 202.998 17.9728L201.932 16.4819V17.9364C201.932 18.0031 201.908 18.0607 201.859 18.1091C201.81 18.1576 201.753 18.1819 201.686 18.1819H200.493C200.426 18.1819 200.368 18.1576 200.32 18.1091C200.271 18.0607 200.247 18.0031 200.247 17.9364V16.4728L199.172 17.9728C199.135 18.0273 199.093 18.0758 199.044 18.1182C199.002 18.1607 198.92 18.1819 198.798 18.1819H197.414C197.359 18.1819 197.31 18.1637 197.268 18.1273C197.232 18.0849 197.213 18.0364 197.213 17.9819C197.213 17.9698 197.213 17.9576 197.213 17.9455C197.219 17.9273 197.228 17.9061 197.241 17.8819L199.345 14.9455L197.332 12.1182C197.313 12.0819 197.304 12.0485 197.304 12.0182C197.304 11.9637 197.323 11.9182 197.359 11.8819C197.402 11.8394 197.45 11.8182 197.505 11.8182H198.88C199.002 11.8182 199.09 11.8485 199.144 11.9091C199.199 11.9698 199.239 12.0152 199.263 12.0455L200.247 13.4273V12.0637C200.247 11.997 200.271 11.9394 200.32 11.891C200.368 11.8425 200.426 11.8182 200.493 11.8182H201.686C201.753 11.8182 201.81 11.8425 201.859 11.891C201.908 11.9394 201.932 11.997 201.932 12.0637V13.4091L202.907 12.0455C202.931 12.0152 202.97 11.9698 203.025 11.9091C203.08 11.8485 203.168 11.8182 203.289 11.8182H204.665Z" fill="white"/>
<path d="M211.169 16.7273C211.236 16.7273 211.294 16.7516 211.342 16.8001C211.391 16.8485 211.415 16.9061 211.415 16.9728V17.9364C211.415 18.0031 211.391 18.0607 211.342 18.1091C211.294 18.1576 211.236 18.1819 211.169 18.1819H206.852C206.785 18.1819 206.727 18.1576 206.679 18.1091C206.63 18.0607 206.606 18.0031 206.606 17.9364V12.0637C206.606 11.997 206.63 11.9394 206.679 11.891C206.727 11.8425 206.785 11.8182 206.852 11.8182H211.097C211.163 11.8182 211.221 11.8425 211.27 11.891C211.318 11.9394 211.342 11.997 211.342 12.0637V13.0273C211.342 13.094 211.318 13.1516 211.27 13.2001C211.221 13.2485 211.163 13.2728 211.097 13.2728H208.291V14.2546H210.896C210.963 14.2546 211.021 14.2788 211.069 14.3273C211.118 14.3758 211.142 14.4334 211.142 14.5001V15.4637C211.142 15.5304 211.118 15.5879 211.069 15.6364C211.021 15.6849 210.963 15.7091 210.896 15.7091H208.291V16.7273H211.169Z" fill="white"/>
<path d="M216.221 11.8182C216.61 11.8182 216.959 11.8637 217.269 11.9546C217.579 12.0394 217.843 12.1728 218.061 12.3546C218.28 12.5304 218.447 12.7516 218.562 13.0182C218.684 13.2849 218.745 13.594 218.745 13.9455C218.745 14.3031 218.684 14.6152 218.562 14.8819C218.447 15.1485 218.28 15.3698 218.061 15.5455C217.843 15.7213 217.579 15.8546 217.269 15.9455C216.959 16.0364 216.61 16.0819 216.221 16.0819H215.055V17.9364C215.055 18.0031 215.031 18.0607 214.982 18.1091C214.934 18.1576 214.876 18.1819 214.809 18.1819H213.616C213.549 18.1819 213.491 18.1576 213.443 18.1091C213.394 18.0607 213.37 18.0031 213.37 17.9364V12.0637C213.37 11.997 213.394 11.9394 213.443 11.891C213.491 11.8425 213.549 11.8182 213.616 11.8182H216.221ZM215.055 14.6637H216.176C216.431 14.6637 216.64 14.6091 216.804 14.5001C216.974 14.3849 217.059 14.2001 217.059 13.9455C217.059 13.691 216.974 13.5091 216.804 13.4001C216.64 13.2849 216.431 13.2273 216.176 13.2273H215.055V14.6637Z" fill="white"/>
<path d="M165.379 21.8182C165.446 21.8182 165.504 21.8425 165.552 21.891C165.601 21.9394 165.625 21.997 165.625 22.0637V27.9364C165.625 28.0031 165.601 28.0607 165.552 28.1091C165.504 28.1576 165.446 28.1819 165.379 28.1819H164.186C164.119 28.1819 164.061 28.1576 164.013 28.1091C163.964 28.0607 163.94 28.0031 163.94 27.9364V23.2728H161.736V27.9364C161.736 28.0031 161.711 28.0607 161.663 28.1091C161.614 28.1576 161.556 28.1819 161.49 28.1819H160.296C160.229 28.1819 160.172 28.1576 160.123 28.1091C160.075 28.0607 160.05 28.0031 160.05 27.9364V22.0637C160.05 21.997 160.075 21.9394 160.123 21.891C160.172 21.8425 160.229 21.8182 160.296 21.8182H165.379Z" fill="white"/>
<path d="M171.181 21.8182C171.303 21.8182 171.394 21.8516 171.455 21.9182C171.522 21.9849 171.567 22.0516 171.591 22.1182L173.577 27.8455C173.601 27.9061 173.614 27.9516 173.614 27.9819C173.614 28.0364 173.592 28.0849 173.55 28.1273C173.513 28.1637 173.468 28.1819 173.413 28.1819H172.265C172.144 28.1819 172.056 28.1576 172.001 28.1091C171.953 28.0546 171.922 28.0031 171.91 27.9546L171.655 27.2001H169.232L168.977 27.9546C168.965 28.0031 168.931 28.0546 168.877 28.1091C168.828 28.1576 168.743 28.1819 168.622 28.1819H167.474C167.419 28.1819 167.371 28.1637 167.328 28.1273C167.292 28.0849 167.274 28.0364 167.274 27.9819C167.274 27.9516 167.286 27.9061 167.31 27.8455L169.296 22.1182C169.32 22.0516 169.363 21.9849 169.423 21.9182C169.49 21.8516 169.584 21.8182 169.706 21.8182H171.181ZM169.706 25.791H171.181L170.444 23.6091L169.706 25.791Z" fill="white"/>
<path d="M178.112 21.8182C178.5 21.8182 178.849 21.8637 179.159 21.9546C179.469 22.0394 179.733 22.1728 179.952 22.3546C180.17 22.5304 180.337 22.7516 180.453 23.0182C180.574 23.2849 180.635 23.594 180.635 23.9455C180.635 24.3031 180.574 24.6152 180.453 24.8819C180.337 25.1485 180.17 25.3698 179.952 25.5455C179.733 25.7213 179.469 25.8546 179.159 25.9455C178.849 26.0364 178.5 26.0819 178.112 26.0819H176.946V27.9364C176.946 28.0031 176.921 28.0607 176.873 28.1091C176.824 28.1576 176.766 28.1819 176.7 28.1819H175.506C175.44 28.1819 175.382 28.1576 175.333 28.1091C175.285 28.0607 175.26 28.0031 175.26 27.9364V22.0637C175.26 21.997 175.285 21.9394 175.333 21.891C175.382 21.8425 175.44 21.8182 175.506 21.8182H178.112ZM176.946 24.6637H178.066C178.321 24.6637 178.531 24.6091 178.695 24.5001C178.865 24.3849 178.95 24.2001 178.95 23.9455C178.95 23.691 178.865 23.5091 178.695 23.4001C178.531 23.2849 178.321 23.2273 178.066 23.2273H176.946V24.6637Z" fill="white"/>
<path d="M182.207 24.191C182.225 23.8516 182.298 23.5334 182.425 23.2364C182.559 22.9334 182.744 22.6728 182.981 22.4546C183.224 22.2304 183.515 22.0546 183.855 21.9273C184.202 21.794 184.599 21.7273 185.049 21.7273C185.492 21.7273 185.887 21.794 186.233 21.9273C186.579 22.0546 186.871 22.2304 187.107 22.4546C187.35 22.6728 187.536 22.9334 187.663 23.2364C187.797 23.5334 187.873 23.8516 187.891 24.191C187.903 24.4516 187.909 24.7243 187.909 25.0091C187.909 25.294 187.903 25.5607 187.891 25.8091C187.873 26.1485 187.797 26.4698 187.663 26.7728C187.536 27.0698 187.35 27.3304 187.107 27.5546C186.871 27.7788 186.579 27.9546 186.233 28.0819C185.887 28.2091 185.492 28.2728 185.049 28.2728C184.599 28.2728 184.202 28.2091 183.855 28.0819C183.515 27.9546 183.224 27.7788 182.981 27.5546C182.744 27.3304 182.559 27.0698 182.425 26.7728C182.298 26.4698 182.225 26.1485 182.207 25.8091C182.194 25.5607 182.188 25.294 182.188 25.0091C182.188 24.7243 182.194 24.4516 182.207 24.191ZM186.206 25.7637C186.212 25.6546 186.218 25.5334 186.224 25.4001C186.23 25.2667 186.233 25.1304 186.233 24.991C186.233 24.8516 186.23 24.7182 186.224 24.591C186.218 24.4576 186.212 24.3394 186.206 24.2364C186.193 24.0849 186.16 23.9455 186.105 23.8182C186.057 23.691 185.984 23.5819 185.887 23.491C185.796 23.394 185.68 23.3182 185.541 23.2637C185.401 23.2091 185.237 23.1819 185.049 23.1819C184.86 23.1819 184.697 23.2091 184.557 23.2637C184.417 23.3182 184.299 23.394 184.202 23.491C184.11 23.5819 184.038 23.691 183.983 23.8182C183.934 23.9455 183.904 24.0849 183.892 24.2364C183.88 24.3394 183.871 24.4576 183.865 24.591C183.865 24.7182 183.865 24.8516 183.865 24.991C183.865 25.1304 183.865 25.2667 183.865 25.4001C183.871 25.5334 183.88 25.6546 183.892 25.7637C183.916 26.0667 184.019 26.3182 184.202 26.5182C184.39 26.7182 184.672 26.8182 185.049 26.8182C185.425 26.8182 185.705 26.7182 185.887 26.5182C186.069 26.3182 186.175 26.0667 186.206 25.7637Z" fill="white"/>
<path d="M191.99 23.2728V26.0001C191.99 26.3637 191.935 26.6879 191.826 26.9728C191.723 27.2576 191.571 27.497 191.37 27.691C191.17 27.8788 190.927 28.0243 190.642 28.1273C190.356 28.2243 190.037 28.2728 189.685 28.2728H189.539C189.473 28.2728 189.415 28.2485 189.366 28.2001C189.318 28.1516 189.294 28.094 189.294 28.0273V27.0637C189.294 26.997 189.318 26.9395 189.366 26.891C189.415 26.8425 189.473 26.8182 189.539 26.8182C189.813 26.8182 190.007 26.7546 190.122 26.6273C190.244 26.5001 190.305 26.291 190.305 26.0001V22.0637C190.305 21.997 190.329 21.9394 190.378 21.891C190.426 21.8425 190.484 21.8182 190.551 21.8182H195.133C195.199 21.8182 195.257 21.8425 195.306 21.891C195.354 21.9394 195.379 21.997 195.379 22.0637V27.9364C195.379 28.0031 195.354 28.0607 195.306 28.1091C195.257 28.1576 195.199 28.1819 195.133 28.1819H193.939C193.872 28.1819 193.815 28.1576 193.766 28.1091C193.718 28.0607 193.693 28.0031 193.693 27.9364V23.2728H191.99Z" fill="white"/>
<path d="M202.128 26.7273C202.194 26.7273 202.252 26.7516 202.301 26.8001C202.349 26.8485 202.374 26.9061 202.374 26.9728V27.9364C202.374 28.0031 202.349 28.0607 202.301 28.1091C202.252 28.1576 202.194 28.1819 202.128 28.1819H197.81C197.743 28.1819 197.685 28.1576 197.637 28.1091C197.588 28.0607 197.564 28.0031 197.564 27.9364V22.0637C197.564 21.997 197.588 21.9394 197.637 21.891C197.685 21.8425 197.743 21.8182 197.81 21.8182H202.055C202.122 21.8182 202.179 21.8425 202.228 21.891C202.276 21.9394 202.301 21.997 202.301 22.0637V23.0273C202.301 23.094 202.276 23.1516 202.228 23.2001C202.179 23.2485 202.122 23.2728 202.055 23.2728H199.249V24.2546H201.854C201.921 24.2546 201.979 24.2788 202.027 24.3273C202.076 24.3758 202.1 24.4334 202.1 24.5001V25.4637C202.1 25.5304 202.076 25.5879 202.027 25.6364C201.979 25.6849 201.921 25.7091 201.854 25.7091H199.249V26.7273H202.128Z" fill="white"/>
<path d="M206.997 21.4091C206.718 21.4091 206.481 21.3698 206.287 21.291C206.092 21.2061 205.932 21.1001 205.804 20.9728C205.683 20.8394 205.595 20.694 205.54 20.5364C205.485 20.3788 205.458 20.2273 205.458 20.0819C205.458 20.0334 205.473 19.994 205.503 19.9637C205.534 19.9273 205.576 19.9091 205.631 19.9091H206.396C206.451 19.9091 206.493 19.9273 206.524 19.9637C206.554 19.994 206.569 20.0334 206.569 20.0819C206.569 20.197 206.606 20.3031 206.679 20.4001C206.751 20.491 206.858 20.5364 206.997 20.5364C207.137 20.5364 207.243 20.491 207.316 20.4001C207.389 20.3031 207.425 20.197 207.425 20.0819C207.425 20.0334 207.441 19.994 207.471 19.9637C207.501 19.9273 207.544 19.9091 207.599 19.9091H208.364C208.418 19.9091 208.461 19.9273 208.491 19.9637C208.522 19.994 208.537 20.0334 208.537 20.0819C208.537 20.2273 208.509 20.3788 208.455 20.5364C208.4 20.694 208.309 20.8394 208.182 20.9728C208.06 21.1001 207.902 21.2061 207.708 21.291C207.514 21.3698 207.277 21.4091 206.997 21.4091ZM205.522 28.1819C205.625 28.1819 205.707 28.1546 205.768 28.1001C205.834 28.0455 205.877 28.0031 205.895 27.9728L207.981 24.8637V27.9364C207.981 28.0031 208.005 28.0607 208.054 28.1091C208.103 28.1576 208.16 28.1819 208.227 28.1819H209.42C209.487 28.1819 209.545 28.1576 209.593 28.1091C209.642 28.0607 209.666 28.0031 209.666 27.9364V22.0637C209.666 21.997 209.642 21.9394 209.593 21.891C209.545 21.8425 209.487 21.8182 209.42 21.8182H208.473C208.37 21.8182 208.285 21.8455 208.218 21.9001C208.157 21.9546 208.118 21.997 208.1 22.0273L206.014 25.1364V22.0637C206.014 21.997 205.989 21.9394 205.941 21.891C205.892 21.8425 205.834 21.8182 205.768 21.8182H204.574C204.507 21.8182 204.45 21.8425 204.401 21.891C204.353 21.9394 204.328 21.997 204.328 22.0637V27.9364C204.328 28.0031 204.353 28.0607 204.401 28.1091C204.45 28.1576 204.507 28.1819 204.574 28.1819H205.522Z" fill="white"/>
<defs>
<linearGradient id="paint0_linear" x1="-0.140137" y1="21.5886" x2="32.5191" y2="21.5886" gradientUnits="userSpaceOnUse">
<stop stop-color="#FF4D00"/>
<stop offset="1" stop-color="#EA3797"/>
</linearGradient>
<clipPath id="clip0">
<rect width="136.64" height="32.7273" fill="white" transform="translate(0 3.63635)"/>
</clipPath>
</defs>
</svg>
